<mxfile modified="2022-01-19T11:37:07.332Z" host="app.diagrams.net" agent="5.0 (X11)" etag="B0yfzZ2QmDlZwqPyNBGB" version="16.2.0" type="github">
  <diagram id="7gcUSTIZ7YSJ5vT40chW" name="Page-1">
    <mxGraphModel dx="1350" dy="820" grid="0" gridSize="10" guides="1" tooltips="1" connect="1" arrows="1" fold="1" page="1" pageScale="1" pageWidth="1169" pageHeight="827" math="0" shadow="0">
      <root>
        <mxCell id="0" />
        <mxCell id="1" parent="0" />
        <mxCell id="850gOdfeZTXMUQ3-E90S-2" value="&lt;div&gt;liono&lt;/div&gt;&lt;div&gt;&lt;br&gt;&lt;/div&gt;" style="shadow=0;dashed=0;html=1;strokeColor=none;fillColor=#4495D1;labelPosition=center;verticalLabelPosition=bottom;verticalAlign=top;align=center;outlineConnect=0;shape=mxgraph.veeam.2d.virtual_machine;" vertex="1" parent="1">
          <mxGeometry x="477" y="444.5" width="92" height="99" as="geometry" />
        </mxCell>
        <mxCell id="850gOdfeZTXMUQ3-E90S-4" value="davinci" style="shadow=0;dashed=0;html=1;strokeColor=none;fillColor=#4495D1;labelPosition=center;verticalLabelPosition=bottom;verticalAlign=top;align=center;outlineConnect=0;shape=mxgraph.veeam.2d.virtual_machine;" vertex="1" parent="1">
          <mxGeometry x="222" y="444.5" width="92" height="99" as="geometry" />
        </mxCell>
        <mxCell id="850gOdfeZTXMUQ3-E90S-5" value="coroni" style="shadow=0;dashed=0;html=1;strokeColor=none;fillColor=#4495D1;labelPosition=center;verticalLabelPosition=bottom;verticalAlign=top;align=center;outlineConnect=0;shape=mxgraph.veeam.2d.virtual_machine;" vertex="1" parent="1">
          <mxGeometry x="732" y="444.5" width="92" height="99" as="geometry" />
        </mxCell>
        <mxCell id="850gOdfeZTXMUQ3-E90S-6" value="framer" style="outlineConnect=0;dashed=0;verticalLabelPosition=bottom;verticalAlign=top;align=center;html=1;shape=mxgraph.aws3.lambda_function;fillColor=#F58534;gradientColor=none;" vertex="1" parent="1">
          <mxGeometry x="171" y="525" width="46" height="42" as="geometry" />
        </mxCell>
        <mxCell id="850gOdfeZTXMUQ3-E90S-7" value="&lt;div&gt;facedetector&lt;/div&gt;&lt;div&gt;&lt;br&gt;&lt;/div&gt;" style="outlineConnect=0;dashed=0;verticalLabelPosition=bottom;verticalAlign=top;align=center;html=1;shape=mxgraph.aws3.lambda_function;fillColor=#F58534;gradientColor=none;" vertex="1" parent="1">
          <mxGeometry x="678" y="473" width="46" height="42" as="geometry" />
        </mxCell>
        <mxCell id="850gOdfeZTXMUQ3-E90S-8" value="inference" style="outlineConnect=0;dashed=0;verticalLabelPosition=bottom;verticalAlign=top;align=center;html=1;shape=mxgraph.aws3.lambda_function;fillColor=#F58534;gradientColor=none;" vertex="1" parent="1">
          <mxGeometry x="749" y="567" width="46" height="42" as="geometry" />
        </mxCell>
        <mxCell id="850gOdfeZTXMUQ3-E90S-10" value="version2" style="outlineConnect=0;dashed=0;verticalLabelPosition=bottom;verticalAlign=top;align=center;html=1;shape=mxgraph.aws3.lambda_function;fillColor=#F58534;gradientColor=none;" vertex="1" parent="1">
          <mxGeometry x="809" y="555" width="46" height="42" as="geometry" />
        </mxCell>
        <mxCell id="850gOdfeZTXMUQ3-E90S-11" value="version1" style="outlineConnect=0;dashed=0;verticalLabelPosition=bottom;verticalAlign=top;align=center;html=1;shape=mxgraph.aws3.lambda_function;fillColor=#F58534;gradientColor=none;" vertex="1" parent="1">
          <mxGeometry x="765" y="379" width="46" height="42" as="geometry" />
        </mxCell>
        <mxCell id="850gOdfeZTXMUQ3-E90S-12" value="version3" style="outlineConnect=0;dashed=0;verticalLabelPosition=bottom;verticalAlign=top;align=center;html=1;shape=mxgraph.aws3.lambda_function;fillColor=#F58534;gradientColor=none;" vertex="1" parent="1">
          <mxGeometry x="834" y="411" width="46" height="42" as="geometry" />
        </mxCell>
        <mxCell id="850gOdfeZTXMUQ3-E90S-13" value="&lt;div&gt;version4&lt;/div&gt;&lt;div&gt;&lt;br&gt;&lt;/div&gt;" style="outlineConnect=0;dashed=0;verticalLabelPosition=bottom;verticalAlign=top;align=center;html=1;shape=mxgraph.aws3.lambda_function;fillColor=#F58534;gradientColor=none;" vertex="1" parent="1">
          <mxGeometry x="831" y="489" width="46" height="42" as="geometry" />
        </mxCell>
        <mxCell id="850gOdfeZTXMUQ3-E90S-14" value="mobilenet" style="outlineConnect=0;dashed=0;verticalLabelPosition=bottom;verticalAlign=top;align=center;html=1;shape=mxgraph.aws3.lambda_function;fillColor=#F58534;gradientColor=none;" vertex="1" parent="1">
          <mxGeometry x="459" y="547" width="46" height="42" as="geometry" />
        </mxCell>
        <mxCell id="850gOdfeZTXMUQ3-E90S-15" value="biginference" style="outlineConnect=0;dashed=0;verticalLabelPosition=bottom;verticalAlign=top;align=center;html=1;shape=mxgraph.aws3.lambda_function;fillColor=#F58534;gradientColor=none;" vertex="1" parent="1">
          <mxGeometry x="245" y="574" width="46" height="42" as="geometry" />
        </mxCell>
        <mxCell id="850gOdfeZTXMUQ3-E90S-16" value="faceanalyzer" style="outlineConnect=0;dashed=0;verticalLabelPosition=bottom;verticalAlign=top;align=center;html=1;shape=mxgraph.aws3.lambda_function;fillColor=#F58534;gradientColor=none;" vertex="1" parent="1">
          <mxGeometry x="422" y="460" width="46" height="42" as="geometry" />
        </mxCell>
        <mxCell id="850gOdfeZTXMUQ3-E90S-17" value="monolith" style="outlineConnect=0;dashed=0;verticalLabelPosition=bottom;verticalAlign=top;align=center;html=1;shape=mxgraph.aws3.lambda_function;fillColor=#F58534;gradientColor=none;" vertex="1" parent="1">
          <mxGeometry x="571" y="475" width="46" height="42" as="geometry" />
        </mxCell>
        <mxCell id="850gOdfeZTXMUQ3-E90S-19" value="outputer" style="outlineConnect=0;dashed=0;verticalLabelPosition=bottom;verticalAlign=top;align=center;html=1;shape=mxgraph.aws3.lambda_function;fillColor=#F58534;gradientColor=none;" vertex="1" parent="1">
          <mxGeometry x="539" y="553" width="46" height="42" as="geometry" />
        </mxCell>
      </root>
    </mxGraphModel>
  </diagram>
</mxfile>
